<svg xmlns="http://www.w3.org/2000/svg" width="16" height="16" viewBox="0 0 16 16">
  <path d="M1.89 12.11c.46 0 .73-.23.9-.8L3.22 10h3.05l.45 1.33c.15.55.42.78.92.78.51 0 .88-.34.88-.83a1.56 1.56 0 0 0-.11-.56L6.1 4.42c-.25-.69-.66-1-1.36-1-.66 0-1.08.32-1.33 1.01l-2.3 6.29a1.82 1.82 0 0 0-.12.56c0 .5.34.83.9.83ZM3.6 8.63l1.1-3.47h.04l1.12 3.46H3.61Zm7.62 3.47c.78 0 1.57-.4 1.92-1.06h.03v.32c.04.5.36.76.82.76.49 0 .83-.29.83-.86V7.68c0-1.26-1.04-2.1-2.66-2.1-1.3 0-2.3.47-2.6 1.22a.9.9 0 0 0-.09.38c0 .39.3.66.72.66a.86.86 0 0 0 .68-.32c.38-.49.7-.66 1.22-.66.64 0 1.05.34 1.05.93v.41l-1.58.1c-1.57.1-2.45.75-2.45 1.9 0 1.13.91 1.9 2.1 1.9Zm.56-1.24c-.58 0-.96-.29-.96-.76 0-.44.36-.73 1-.78l1.32-.08v.46c0 .68-.61 1.16-1.36 1.16Z" fill="currentColor"/>
</svg>
