<svg xmlns="http://www.w3.org/2000/svg" width="10" height="10" viewBox="0 0 10 10"><path fill="currentColor" d="M8.999 2.964c0-.27-.054-.525-.161-.764a1.994 1.994 0 0 0-.437-.625 2.078 2.078 0 0 0-.64-.42A1.942 1.942 0 0 0 6.997 1H2.085a1.51 1.51 0 0 1 .547-.728A1.51 1.51 0 0 1 3.502 0h3.495C7.41 0 7.8.079 8.164.237a3.02 3.02 0 0 1 1.6 1.594c.157.365.236.754.236 1.167v3.501a1.51 1.51 0 0 1-.273.87 1.51 1.51 0 0 1-.728.546ZM1.475 10c-.196 0-.383-.04-.562-.12a1.554 1.554 0 0 1-.793-.793A1.365 1.365 0 0 1 0 8.525V3.477c0-.199.04-.387.12-.564a1.563 1.563 0 0 1 .79-.791c.178-.08.366-.12.565-.12h5.048c.199 0 .388.04.567.12a1.545 1.545 0 0 1 .788.788c.08.18.12.368.12.567v5.048c0 .199-.04.387-.12.564a1.563 1.563 0 0 1-.79.791 1.36 1.36 0 0 1-.565.12Zm5.024-1.001a.48.48 0 0 0 .193-.039.537.537 0 0 0 .161-.107.487.487 0 0 0 .149-.352v-5a.498.498 0 0 0-.308-.464.498.498 0 0 0-.195-.039h-5a.48.48 0 0 0-.352.149.537.537 0 0 0-.107.161.48.48 0 0 0-.039.193v5a.48.48 0 0 0 .146.352.507.507 0 0 0 .352.146z"/></svg>
