<svg xmlns="http://www.w3.org/2000/svg" width="10" height="10" viewBox="0 0 10 10"><path fill="currentColor" d="M5 5.708.854 9.854A.48.48 0 0 1 .503 10a.487.487 0 0 1-.359-.144A.487.487 0 0 1 0 9.497a.48.48 0 0 1 .146-.351L4.292 5 .146.854A.485.485 0 0 1 0 .498.498.498 0 0 1 .146.144.52.52 0 0 1 .503 0a.48.48 0 0 1 .351.146L5 4.292 9.146.146A.485.485 0 0 1 9.502 0a.48.48 0 0 1 .352.146.507.507 0 0 1 .146.352c0 .14-.049.259-.146.356L5.708 5l4.146 4.146a.498.498 0 0 1 .107.547.472.472 0 0 1-.264.269.498.498 0 0 1-.195.038.485.485 0 0 1-.356-.146Z"/></svg>
