<svg xmlns="http://www.w3.org/2000/svg" width="20" height="20" viewBox="0 0 20 20">
  <path fill="currentColor" fill-rule="evenodd" clip-rule="evenodd" d="M2.436 4.184C2 5.04 2 6.16 2 8.4v3.2c0 2.24 0 3.36.436 4.216a4 4 0 0 0 1.748 1.748C5.04 18 6.16 18 8.4 18h3.2c2.24 0 3.36 0 4.216-.436a4 4 0 0 0 1.748-1.748C18 14.96 18 13.84 18 11.6V8.4c0-2.24 0-3.36-.436-4.216a4 4 0 0 0-1.748-1.748C14.96 2 13.84 2 11.6 2H8.4c-2.24 0-3.36 0-4.216.436a4 4 0 0 0-1.748 1.748Zm12.2 3.803a.9.9 0 1 0-1.272-1.274l-4.673 4.665-2.055-2.052A.9.9 0 0 0 5.364 10.6l2.691 2.687a.9.9 0 0 0 1.272 0l5.309-5.3Z"/>
</svg>
