<svg xmlns="http://www.w3.org/2000/svg" width="24" height="24" viewBox="0 0 24 24">
  <g fill="currentColor" fill-rule="evenodd" clip-rule="evenodd">
    <path d="M5.146 3.634c.762-.407 1.512-.534 3.082-.534H10.1a.9.9 0 1 1 0 1.8H8.228c-1.487 0-1.87.128-2.233.322-.336.18-.594.437-.773.773-.194.362-.322.746-.322 2.233v7.544c0 1.487.128 1.87.322 2.233.18.336.437.594.773.774.362.193.746.321 2.233.321h7.544c1.487 0 1.87-.128 2.233-.321.336-.18.594-.438.774-.774.193-.362.321-.746.321-2.233V13.9a.9.9 0 1 1 1.8 0v1.872c0 1.57-.127 2.32-.534 3.082a3.646 3.646 0 0 1-1.512 1.512c-.763.407-1.512.534-3.082.534H8.228c-1.57 0-2.32-.127-3.082-.534a3.647 3.647 0 0 1-1.512-1.512c-.407-.762-.534-1.512-.534-3.082V8.228c0-1.57.127-2.32.534-3.082a3.647 3.647 0 0 1 1.512-1.512z"/><path d="M14 4a.9.9 0 0 1 .9-.9H20a.9.9 0 0 1 .9.9v5.1a.9.9 0 1 1-1.8 0V6.173l-6.564 6.563a.9.9 0 1 1-1.272-1.272L17.827 4.9H14.9A.9.9 0 0 1 14 4z"/>
  </g>
</svg>
