<svg xmlns="http://www.w3.org/2000/svg" viewBox="0 0 16 16" width="16" height="16" fill="currentColor">
  <path fill-rule="evenodd" clip-rule="evenodd" d="M1.827 2.638C1.5 3.28 1.5 4.12 1.5 5.8v3c0 1.12 0 1.68.218 2.108a2 2 0 0 0 .874.874c.122.062.255.107.408.138V5.7c0-1.12 0-1.68.218-2.108a2 2 0 0 1 .874-.874C4.52 2.5 5.08 2.5 6.2 2.5h5.22a1.593 1.593 0 0 0-.138-.408 2 2 0 0 0-.874-.874C9.98 1 9.42 1 8.3 1h-2c-1.68 0-2.52 0-3.162.327a3 3 0 0 0-1.311 1.311ZM7.7 5.5h3.6c.585 0 .933.001 1.191.022.158.013.224.03.242.036a.5.5 0 0 1 .21.209c.005.018.022.084.035.242.02.258.022.606.022 1.191v4.6c0 .585-.001.933-.022 1.191-.013.158-.03.224-.036.242a.5.5 0 0 1-.209.21 1.253 1.253 0 0 1-.242.035c-.258.02-.606.022-1.191.022H7.7c-.585 0-.933-.001-1.191-.022a1.252 1.252 0 0 1-.242-.036.5.5 0 0 1-.21-.209 1.255 1.255 0 0 1-.035-.242C6.002 12.733 6 12.385 6 11.8V7.2c0-.585.001-.933.022-1.191.013-.158.03-.224.036-.242a.5.5 0 0 1 .209-.21c.018-.005.084-.022.242-.035.258-.02.606-.022 1.191-.022Zm5.038.06-.003-.002.003.001Zm.203.202v.003-.003Zm0 7.473v.003-.003Zm-.203.206h-.003.003Zm-6.473 0h-.003.003Zm-.206-.203v-.003.003Zm0-7.473v-.003.002Zm.203-.206h.003-.003ZM4.5 7.2c0-1.12 0-1.68.218-2.108a2 2 0 0 1 .874-.874C6.02 4 6.58 4 7.7 4h3.6c1.12 0 1.68 0 2.108.218a2 2 0 0 1 .874.874c.218.428.218.988.218 2.108v4.6c0 1.12 0 1.68-.218 2.108a2 2 0 0 1-.874.874C12.98 15 12.42 15 11.3 15H7.7c-1.12 0-1.68 0-2.108-.218a2 2 0 0 1-.874-.874C4.5 13.48 4.5 12.92 4.5 11.8V7.2Z" />
</svg>
