<svg xmlns="http://www.w3.org/2000/svg" width="28" height="28" viewBox="0 0 28 28" fill="currentColor">
  <path fill-rule="evenodd" d="M10.94 9.5a1 1 0 0 0-.94 1.06l.5 9a1 1 0 0 0 2-.11l-.5-9a1 1 0 0 0-1.06-.95Zm6.12 0a1 1 0 0 1 .94 1.05l-.5 9a1 1 0 0 1-2-.1l.5-9a1 1 0 0 1 1.06-.95Z" clip-rule="evenodd" />
  <path fill-rule="evenodd" d="M3.5 5a1 1 0 0 0 0 2h1.1l1.3 12.82c.07.73.13 1.34.22 1.83.09.51.23.98.49 1.41a4 4 0 0 0 1.72 1.56c.45.21.93.3 1.45.34.5.04 1.1.04 1.84.04h4.76c.73 0 1.34 0 1.84-.04.52-.04 1-.13 1.45-.34a4 4 0 0 0 1.72-1.56c.26-.43.4-.9.5-1.41.08-.5.14-1.1.22-1.83L23.4 7h1.09a1 1 0 1 0 0-2h-6.11A4.5 4.5 0 0 0 9.6 5H3.5Zm4.38 14.58c.08.78.13 1.3.2 1.71.08.4.15.6.24.74a2 2 0 0 0 .86.78c.15.07.36.13.76.16s.94.03 1.72.03h4.68c.78 0 1.31 0 1.72-.03.4-.03.61-.09.76-.16.36-.17.66-.44.86-.78.09-.14.16-.34.23-.74.08-.4.13-.93.21-1.7L21.39 7H6.62l1.27 12.58ZM14 3.5A2.5 2.5 0 0 0 11.7 5h4.6A2.5 2.5 0 0 0 14 3.5Z" clip-rule="evenodd" />
</svg>
