<svg xmlns="http://www.w3.org/2000/svg" width="16" height="16" viewBox="0 0 16 16">
  <path fill="currentColor" d="m8.5825 1.9137.062-.0867a.6002.6002 0 0 1 .7578-.128l.0882.0629 3.2715 2.8055.0399.0421a.6001.6001 0 0 1 .0105.7685l-.0756.0776L9.4905 8.238a.6.6 0 0 1-.9827-.3582L8.5 7.7826V5.9994L5 6c-.5128 0-.9355.386-.9933.8834L4 7v4c0 .5128.386.9355.8834.9933L5 12h4c.5523 0 1 .4477 1 1 0 .5128-.386.9355-.8834.9933L9 14H5c-1.5977 0-2.9037-1.2489-2.995-2.8237L2 11V7c0-1.5977 1.249-2.9037 2.8237-2.995L5 4l3.5-.0006v-1.782a.6.6 0 0 1 .0825-.3037l.062-.0867z" />
</svg>
