<svg xmlns="http://www.w3.org/2000/svg" width="20" height="20" viewBox="0 0 20 20">
  <path d="M9.8 15.48c.52 0 .9-.37.9-.89 0-.17-.04-.34-.13-.58L7.65 5.53C7.4 4.81 7 4.5 6.33 4.5c-.65 0-1.05.33-1.3 1.04l-2.91 8.47c-.08.23-.12.44-.12.58 0 .55.36.89.9.89.47 0 .74-.25.9-.83l.66-2.03h3.75l.67 2.05c.16.57.43.8.91.8ZM7.74 11H4.92L6.3 6.52h.05l1.4 4.5Zm9.4 4.49c.5 0 .85-.34.85-.93V9.64c0-1.59-1.19-2.62-3.02-2.62-1.41 0-2.49.58-2.86 1.5a1.23 1.23 0 0 0-.12.5c0 .45.3.75.73.75.3 0 .52-.12.7-.38.44-.67.8-.92 1.48-.92.86 0 1.38.48 1.38 1.3v.86l-1.96.12c-1.8.11-2.8.95-2.8 2.35 0 1.42 1.04 2.38 2.46 2.38.96 0 1.88-.53 2.3-1.38h.04v.55c.03.55.36.85.83.85Zm-2.63-1.42c-.75 0-1.26-.4-1.26-1.05 0-.63.48-1.03 1.32-1.09l1.7-.11v.6c0 .95-.78 1.65-1.76 1.65Z" fill="currentColor"/>
</svg>
