<svg xmlns="http://www.w3.org/2000/svg" width="20" height="20" viewBox="0 0 20 20" fill="currentColor"><path fill-rule="evenodd" clip-rule="evenodd" d="M6.837 4H2.75a.75.75 0 0 0 0 1.5h.545l.907 9.248c.051.523.094.96.157 1.314.066.37.163.711.353 1.028a2.9 2.9 0 0 0 1.247 1.131c.334.158.682.222 1.058.25.36.029.797.029 1.323.029h3.32c.526 0 .964 0 1.323-.028.376-.03.724-.093 1.058-.25a2.9 2.9 0 0 0 1.247-1.132c.19-.317.287-.657.353-1.028.063-.355.106-.79.157-1.314l.907-9.248h.545a.75.75 0 0 0 0-1.5h-4.087a3.25 3.25 0 0 0-6.326 0Zm1.581 0h3.164a1.751 1.751 0 0 0-3.164 0Zm6.78 1.5H4.802l.89 9.072c.054.56.091.938.143 1.228.05.281.104.422.162.52a1.4 1.4 0 0 0 .603.546c.102.048.248.088.533.11.294.024.673.024 1.235.024h3.262c.562 0 .941 0 1.235-.023.285-.023.43-.063.533-.111a1.4 1.4 0 0 0 .603-.547c.058-.097.112-.238.162-.52.052-.29.09-.667.144-1.226l.89-9.073Zm-2.886 2.002a.75.75 0 0 1 .685.81l-.5 6.003a.75.75 0 0 1-1.494-.124l.5-6.003a.75.75 0 0 1 .81-.686Zm-4.624 0a.75.75 0 0 1 .81.686l.5 6.002a.75.75 0 0 1-1.495.125l-.5-6.003a.75.75 0 0 1 .685-.81Z"/></svg>
