<svg xmlns="http://www.w3.org/2000/svg" width="24" height="24" viewBox="0 0 24 24"><path fill="currentColor" fill-rule="evenodd" clip-rule="evenodd" d="M5.07 3.54C5.84 3.13 6.6 3 8.19 3h2.91a.9.9 0 1 1 0 1.8H8.2c-1.51 0-1.9.13-2.27.33-.34.18-.6.44-.79.79-.2.36-.33.76-.33 2.26v7.64c0 1.5.13 1.9.33 2.27.18.34.45.6.79.78.37.2.76.33 2.27.33h2.91a.9.9 0 1 1 0 1.8H8.2c-1.6 0-2.35-.13-3.12-.54a3.68 3.68 0 0 1-1.53-1.53c-.4-.76-.54-1.52-.54-3.11V8.18c0-1.59.13-2.34.54-3.11.35-.66.87-1.18 1.53-1.53Z"/><path fill="currentColor" fill-rule="evenodd" clip-rule="evenodd" d="M16.36 8.26a.9.9 0 0 1 1.27 0l3.1 3.1a.9.9 0 0 1 0 1.28l-3.1 3.1a.9.9 0 0 1-1.27 0 .9.9 0 0 1 0-1.27l1.57-1.57H10.9a.9.9 0 1 1 0-1.8h7.03l-1.57-1.57a.9.9 0 0 1 0-1.27Z"/></svg>
