<svg xmlns="http://www.w3.org/2000/svg" width="20" height="20" viewBox="0 0 20 20">
  <path fill="currentColor" d="M10.25 2.5c-2.938 0-5.576 1.391-7.044 3.572a.749.749 0 1 0 1.244.836c1.171-1.738 3.327-2.91 5.8-2.91 3.775 0 6.75 2.694 6.75 5.995s-2.975 5.995-6.75 5.995c-.91 0-1.788-.156-2.6-.455a.75.75 0 0 0-.822.207c-.609.687-1.64 1.105-3.123 1.22.682-1.347 1.045-2.376 1.084-3.13a.749.749 0 0 0-.15-.49 5.768 5.768 0 0 1-.67-1.137.75.75 0 0 0-1.372.607c.183.412.405.808.665 1.183-.082.457-.338 1.189-.896 2.292l-.24.475a1.2 1.2 0 0 0 1.164 1.736l.532-.041c1.472-.115 2.804-.51 3.768-1.361.85.26 1.745.392 2.66.392 4.435 0 8.25-3.206 8.25-7.493 0-4.287-3.815-7.493-8.25-7.493Zm-.971 3.97a.75.75 0 0 0-1.06 1.06l1.219 1.22H2.75a.75.75 0 1 0 0 1.5h6.688l-1.22 1.22a.75.75 0 1 0 1.06 1.06l2.5-2.5a.75.75 0 0 0 0-1.06l-2.5-2.5Z" />
</svg>
