<svg xmlns="http://www.w3.org/2000/svg" width="10" height="10" viewBox="0 0 10 10"><path fill="currentColor" d="M1.475 10c-.196 0-.383-.04-.562-.12a1.554 1.554 0 0 1-.793-.793A1.365 1.365 0 0 1 0 8.525v-7.05c0-.196.04-.383.12-.562A1.554 1.554 0 0 1 .913.12c.18-.08.366-.12.562-.12h7.05c.196 0 .383.04.562.12a1.554 1.554 0 0 1 .793.793c.08.18.12.366.12.562v7.05c0 .196-.04.383-.12.562a1.554 1.554 0 0 1-.793.793c-.18.08-.366.12-.562.12ZM8.5 8.999a.48.48 0 0 0 .352-.146.507.507 0 0 0 .146-.352V1.499a.48.48 0 0 0-.146-.352.507.507 0 0 0-.352-.146H1.499a.48.48 0 0 0-.352.146.507.507 0 0 0-.146.352v7.002a.48.48 0 0 0 .146.352.507.507 0 0 0 .352.146z"/></svg>
