<svg xmlns="http://www.w3.org/2000/svg" width="24" height="24" viewBox="0 0 24 24" fill="currentColor"><path fill-rule="evenodd" d="M11.593 6.41a.9.9 0 0 1-.092-1.797c2.759-.141 5.574.953 7.649 2.5.975.728 1.787 1.554 2.356 2.396.57.843.894 1.7.894 2.49 0 .941-.464 1.982-1.242 2.967a.9.9 0 1 1-1.413-1.116c.41-.519.855-1.168.855-1.85 0-.312-.139-.822-.585-1.483-.436-.646-1.097-1.33-1.941-1.96-1.836-1.37-4.169-2.265-6.48-2.147ZM4.85 16.886C6.8 18.341 9.4 19.4 12 19.4c1.967 0 3.93-.607 5.604-1.523l1.26 1.26a.9.9 0 0 0 1.272-1.273l-13.5-13.5a.9.9 0 0 0-1.272 1.272l.684.684c-.42.246-.82.512-1.198.794-.975.727-1.787 1.553-2.356 2.395-.57.843-.894 1.7-.894 2.49 0 .791.325 1.65.894 2.492.569.841 1.381 1.668 2.356 2.395ZM10.4 12a1.6 1.6 0 0 0 2.587 1.26l-2.247-2.247c-.213.272-.34.615-.34.987Zm1.6 3.4a3.4 3.4 0 0 1-2.537-5.664L7.37 7.643c-.513.273-.998.581-1.444.914-.844.63-1.505 1.314-1.94 1.96-.448.662-.586 1.17-.586 1.483 0 .312.138.821.585 1.483.436.645 1.097 1.33 1.941 1.96C7.631 16.715 9.862 17.6 12 17.6c1.44 0 2.925-.401 4.269-1.058l-2.005-2.005A3.39 3.39 0 0 1 12 15.4Z" clip-rule="evenodd"/></svg>
