<svg xmlns="http://www.w3.org/2000/svg" width="20" height="20" fill="none"><path fill="currentColor" d="m12.5371 6.4052 1.1821-1.1847a.75.75 0 0 1 1.1286.9829l-.067.0768-1.1833 1.186c2.0244 2.5514 1.8573 6.2716-.5013 8.6302-2.5384 2.5384-6.654 2.5384-9.1924 0-2.5384-2.5384-2.5384-6.654 0-9.1924 2.3595-2.3595 6.0817-2.5258 8.6333-.4988zM4.9645 7.9647c-1.9527 1.9526-1.9527 5.1184 0 7.071 1.9526 1.9527 5.1184 1.9527 7.071 0 1.9527-1.9526 1.9527-5.1184 0-7.071-1.9526-1.9526-5.1184-1.9526-7.071 0zm11.924-2.9517.0987.0257 1.5.5a.75.75 0 0 1-.3757 1.4487l-.0987-.0257-1.5-.5a.75.75 0 0 1 .3757-1.4487zm.8762-2.806a.7501.7501 0 0 1 .0912.982l-.0653.0784-1.0475 1.1a.75.75 0 0 1-1.1515-.956l.0653-.0784 1.0475-1.1a.75.75 0 0 1 1.0603-.026zm-3.3419-.7883.0387.0943.5 1.5a.75.75 0 0 1-1.3843.5688l-.0387-.0944-.5-1.5a.75.75 0 0 1 1.3843-.5687z"/></svg>
