<svg xmlns="http://www.w3.org/2000/svg" width="24" height="24" viewBox="0 0 24 24">
  <path d="M14.25 4c.902 0 1.75.694 1.75 1.689V18.31c0 .995-.848 1.689-1.75 1.689-.762 0-1.505-.28-2.063-.798l-4.24-3.935H6.14c-1.118 0-2.14-.856-2.14-2.05v-2.433c0-1.195 1.022-2.05 2.14-2.05h1.807l4.24-3.936A3.035 3.035 0 0 1 14.25 4Zm-.05 1.801a1.23 1.23 0 0 0-.789.316l-4.499 4.176a.9.9 0 0 1-.612.24H6.14c-.14 0-.34.085-.34.25v2.433c0 .166.2.25.34.25H8.3a.9.9 0 0 1 .612.241l4.5 4.175c.2.187.481.305.788.317V5.801Zm7.338.464C23.058 7.792 24 9.792 24 12s-.943 4.208-2.462 5.735a.9.9 0 1 1-1.276-1.27C21.489 15.232 22.2 13.675 22.2 12c0-1.674-.71-3.232-1.938-4.465a.9.9 0 1 1 1.276-1.27Zm-2.551 3.053C19.613 10.058 20 10.983 20 12s-.387 1.943-1.013 2.682a.9.9 0 0 1-1.374-1.164c.383-.451.587-.974.587-1.518s-.204-1.067-.587-1.518a.9.9 0 0 1 1.374-1.164Z" fill="currentColor"/>
</svg>
