<svg xmlns="http://www.w3.org/2000/svg" width="24" height="24" fill="currentColor"><path fill-rule="evenodd" d="M4 12.3V12c0-1.47 0-2.55.07-3.4.08-.9.22-1.49.46-1.95a4.85 4.85 0 0 1 2.12-2.12 5.11 5.11 0 0 1 1.95-.46C9.5 4 10.68 4 12.3 4h4.51a2.07 2.07 0 0 0-.17-.49 2.4 2.4 0 0 0-1.05-1.05 2.44 2.44 0 0 0-.93-.24 13.48 13.48 0 0 0-1.03-.02h-1.37c-1.58 0-2.81 0-3.81.08a6.84 6.84 0 0 0-2.62.64 6.65 6.65 0 0 0-2.9 2.91c-.4.76-.57 1.6-.65 2.62-.08 1-.08 2.23-.08 3.8v1.38c0 .4 0 .74.02 1.03.03.3.08.62.24.93a2.4 2.4 0 0 0 1.05 1.05c.16.08.33.13.49.17V12.3ZM10.08 6h-.04c-.51 0-.96 0-1.32.03-.39.03-.76.1-1.12.28a2.9 2.9 0 0 0-1.3 1.3c-.17.35-.24.72-.27 1.1C6 9.09 6 9.53 6 10.06v7.9c0 .52 0 .97.03 1.33.03.39.1.76.28 1.12a2.9 2.9 0 0 0 1.3 1.3c.35.17.72.24 1.1.27.37.03.81.03 1.34.03h6.9c.53 0 .97 0 1.33-.03.39-.03.76-.1 1.12-.28a2.9 2.9 0 0 0 1.3-1.3c.17-.35.24-.72.27-1.1.03-.37.03-.81.03-1.34v-7.9c0-.52 0-.97-.03-1.33-.03-.39-.1-.76-.28-1.12a2.9 2.9 0 0 0-1.3-1.3 2.95 2.95 0 0 0-1.1-.27C17.91 6 17.47 6 16.94 6h-6.87ZM8.41 7.92c.06-.04.18-.07.45-.1a17.65 17.65 0 0 1 1.22-.02h6.84c.56 0 .94 0 1.22.02.27.03.39.06.45.1a1.1 1.1 0 0 1 .5.49c.03.06.06.18.09.45.02.28.02.66.02 1.22v7.84c0 .56 0 .94-.02 1.22-.03.27-.06.39-.1.45a1.1 1.1 0 0 1-.49.5c-.06.03-.18.06-.45.09a17.65 17.65 0 0 1-1.22.02h-6.84c-.56 0-.94 0-1.22-.02a1.24 1.24 0 0 1-.45-.1 1.1 1.1 0 0 1-.5-.49 1.27 1.27 0 0 1-.09-.45 17.06 17.06 0 0 1-.02-1.22v-7.84c0-.56 0-.94.02-1.22.03-.27.06-.39.1-.45a1.1 1.1 0 0 1 .49-.5Z" clip-rule="evenodd"/></svg>
