<svg xmlns="http://www.w3.org/2000/svg" width="20" height="20" viewBox="0 0 20 20">
  <path fill="currentColor" fill-rule="evenodd" clip-rule="evenodd" d="M4.05 2.53C4.79 2.13 5.52 2 7.13 2h5.74c1.61 0 2.34.14 3.08.53.65.35 1.17.87 1.52 1.52.4.74.53 1.47.53 3.08v5.74c0 1.61-.14 2.34-.53 3.08a3.64 3.64 0 0 1-1.52 1.52c-.74.4-1.47.53-3.08.53H7.13c-1.61 0-2.34-.14-3.08-.53a3.64 3.64 0 0 1-1.52-1.52c-.4-.74-.53-1.47-.53-3.08V7.13c0-1.61.14-2.34.53-3.08.35-.65.87-1.17 1.52-1.52Zm3.08.97c-1.53 0-1.96.14-2.38.36-.38.2-.69.5-.9.9-.21.4-.35.84-.35 2.37v5.74c0 1.53.14 1.96.36 2.38.2.38.5.69.9.9.4.21.84.35 2.37.35h5.74c1.53 0 1.96-.14 2.38-.36.38-.2.69-.5.9-.9.21-.4.35-.84.35-2.37V7.13c0-1.53-.14-1.96-.36-2.38-.2-.38-.5-.69-.9-.9-.4-.21-.84-.35-2.37-.35H7.13Z" />
</svg>
