<svg xmlns="http://www.w3.org/2000/svg" width="28" height="28" viewBox="0 0 28 28">
  <path d="M15.1 2c.5.1.9.3 1.2.6.6.4 1 1 1.1 2l.3.7c.3 0 .6.2.8.3l.7-.2c1.5-.7 2.6-.6 3.6.4l.2.3.7.8.3.5c.7 1.1.4 2.2-.4 3.4-.2.1-.3.4-.4.7l.2.8.6.5c.8.4 1.3.8 1.7 1.5.2.4.2.8.2 1.3v.6l-.3 1-.2.6c-.2.4-.4.7-.8 1-.6.5-1.2.7-2.1.7a4 4 0 0 0-.8 0l-.6.8.1.7c.2 1 .2 1.6-.1 2.3-.2.4-.5.7-.9 1l-.5.3-1 .4-.5.3h-1.3c-.8-.1-1.3-.6-1.9-1.2l-.6-.6a9.6 9.6 0 0 1-.8 0l-.6.6c-.6.6-1.1 1-1.9 1.2H9.8l-.6-.3-.9-.4-.2-.1c-1.3-.7-1.7-1.9-1.3-3.5v-.7l-.5-.7a4 4 0 0 0-.8-.1c-.9 0-1.5-.2-2.1-.7-.4-.3-.6-.6-.8-1l-.2-.6-.2-1-.1-.7c0-.4 0-.9.3-1.3.3-.7.8-1 1.6-1.4l.6-.5.2-.8c0-.3-.2-.6-.4-.7-.8-1.2-1.1-2.3-.4-3.4 0-.2.2-.3.3-.5L5 6l.2-.3c1-1 2.1-1 3.6-.4l.7.2.8-.3.3-.8c.2-.9.5-1.5 1-2L13 2H15Zm-.5 2h-1.1c-.5 0-.8 0-1 1-.1.6-.4 1.3-.8 1.9-.7.2-1.3.5-1.8.8-.8 0-1.5-.2-2-.5-1-.4-1-.2-1.4.2L6 8c-.3.4-.5.6.1 1.4.4.5.7 1.2 1 1.9-.3.6-.4 1.2-.5 1.9-.5.5-1.1 1-1.6 1.2-1 .5-.9.8-.8 1.2l.3 1c0 .5.1.7 1.2.8.5 0 1.3.1 2 .4l1.2 1.5v2c-.3 1 0 1.2.4 1.4l.9.4c.5.2.7.4 1.3-.4.4-.5 1-1 1.6-1.4a7.6 7.6 0 0 0 2 0l1.6 1.4c.6.8.8.6 1.3.4l.9-.4c.4-.2.7-.3.5-1.4-.2-.5-.2-1.3-.1-2 .5-.4.9-1 1.2-1.5.7-.3 1.5-.4 2-.4 1 0 1.1-.3 1.2-.8l.3-1c0-.4.1-.7-.8-1.2-.5-.2-1.1-.7-1.6-1.2 0-.7-.2-1.3-.5-1.9.3-.7.6-1.4 1-1.9.6-.8.4-1 .1-1.4l-.6-.7c-.3-.4-.5-.6-1.4-.2-.5.3-1.2.5-2 .5-.5-.3-1.1-.6-1.8-.8-.4-.6-.7-1.3-.8-1.9-.2-1-.5-1-1-1ZM14 9.5a4.5 4.5 0 1 1 0 9 4.5 4.5 0 0 1 0-9Zm0 2a2.5 2.5 0 1 0 0 5 2.5 2.5 0 0 0 0-5Z" fill="currentColor"/>
</svg>
