<svg xmlns="http://www.w3.org/2000/svg" width="24" height="24" viewBox="0 0 24 24">
  <g fill="none" fill-rule="evenodd">
    <path opacity=".4" d="M0 0h24v24H0z"/>
    <path fill="#828A99" fill-rule="nonzero" d="M2 12C2 6.477 6.477 2 12 2s10 4.477 10 10-4.477 10-10 10S2 17.523 2 12zm18.3 0a8.3 8.3 0 1 0-16.6 0 8.3 8.3 0 0 0 16.6 0zm-11.05-.5a1.25 1.25 0 1 1 0-2.5 1.25 1.25 0 0 1 0 2.5zm5.5 0a1.25 1.25 0 1 1 0-2.5 1.25 1.25 0 0 1 0 2.5z"/>
    <path stroke="#828A99" stroke-width="1.7" d="M9 14.85c.833.767 1.833 1.15 3 1.15s2.167-.383 3-1.15" stroke-linecap="round" stroke-linejoin="round"/>
  </g>
</svg>
