<svg xmlns="http://www.w3.org/2000/svg" width="24" height="24" viewBox="0 0 24 24">
  <path fill="#929fad" d="M10.5,19 C10.5,19.5522847 10.0522847,20 9.5,20 L5,20 C4.44771525,20 4,19.5522847 4,19 L4,14.5 C4,13.9477153 4.44771525,13.5 5,13.5 C5.55228475,13.5 6,13.9477153 6,14.5 L6,16.5715 L9.36290054,13.2071068 L9.36303017,13.2069772 C9.75355446,12.8164529 10.3867194,12.8164529 10.7772437,13.2069772 L10.7930228,13.2227563 L10.7931525,13.2228859 C11.1836052,13.6134818 11.1834891,14.2466468 10.7928932,14.6370995 L7.4285,18 L9.5,18 C10.0522847,18 10.5,18.4477153 10.5,19 Z M18,7.4285 L14.6370995,10.7928932 C14.6370563,10.7929364 14.637013,10.7929796 14.6369698,10.7930228 C14.2464455,11.1835471 13.6132806,11.1835471 13.2227563,10.7930228 L13.2069772,10.7772437 C13.2069339,10.7772005 13.2068907,10.7771573 13.2068475,10.7771141 C12.8163948,10.3865182 12.8165109,9.75335323 13.2071068,9.36290054 L16.5715,6 L14.5,6 C13.9477153,6 13.5,5.55228475 13.5,5 C13.5,4.44771525 13.9477153,4 14.5,4 L19,4 C19.5522847,4 20,4.44771525 20,5 L20,9.5 C20,10.0522847 19.5522847,10.5 19,10.5 C18.4477153,10.5 18,10.0522847 18,9.5 L18,7.4285 Z"/>
</svg>
