<svg xmlns="http://www.w3.org/2000/svg" width="24" height="24" viewBox="0 0 24 24">
  <path fill="#929fad" d="M4.57969048,13.9787492 C4.57969048,13.4323327 5.02264857,12.9893746 5.56906508,12.9893746 L10.0212508,12.9893746 C10.5676673,12.9893746 11.0106254,13.4323327 11.0106254,13.9787492 L11.0106254,18.4309349 C11.0106254,18.9773514 10.5676673,19.4203095 10.0212508,19.4203095 C9.47483429,19.4203095 9.03187619,18.9773514 9.03187619,18.4309349 L9.03187619,16.3814454 L5.71222109,19.7025773 L5.71209146,19.702707 C5.32156717,20.0932313 4.68840219,20.0932313 4.2978779,19.702707 L4.29729303,19.7021221 L4.29716339,19.7019924 C3.90671071,19.3113966 3.90682679,18.6782316 4.29742268,18.2877789 L7.61855457,14.9681238 L5.56906508,14.9681238 C5.02264857,14.9681238 4.57969048,14.5251657 4.57969048,13.9787492 Z M14.9681238,7.61855457 L18.2877789,4.29742268 C18.2878221,4.29737946 18.2878653,4.29733624 18.2879085,4.29729302 C18.6784328,3.90676873 19.3115978,3.90676873 19.7021221,4.29729302 L19.702707,4.2978779 C19.7027502,4.29792111 19.7027934,4.29796433 19.7028366,4.29800755 C20.0932893,4.68860344 20.0931732,5.32176841 19.7025773,5.71222109 L16.3814454,9.03187619 L18.4309349,9.03187619 C18.9773514,9.03187619 19.4203095,9.47483429 19.4203095,10.0212508 C19.4203095,10.5676673 18.9773514,11.0106254 18.4309349,11.0106254 L13.9893746,11.0106254 C13.4370899,11.0106254 12.9893746,10.5629101 12.9893746,10.0106254 L12.9893746,5.56906508 C12.9893746,5.02264857 13.4323327,4.57969048 13.9787492,4.57969048 C14.5251657,4.57969048 14.9681238,5.02264857 14.9681238,5.56906508 L14.9681238,7.61855457 Z"/>
</svg>
