<svg xmlns="http://www.w3.org/2000/svg" width="24" height="24" viewBox="0 0 24 24">
  <g fill="none" fill-rule="evenodd">
    <rect width="24" height="24"/>
    <path stroke="#828A99" stroke-width="1.8" d="M20.0291094,15.0279907 L14.6443834,20.2583795 L14.6443834,20.2583795 C12.0566785,22.7719155 7.93029511,22.7421861 5.37907548,20.1916257 L5.37907548,20.1916257 L5.37907548,20.1916257 L5.37907548,20.1916257 C2.76745218,17.5806772 2.76690514,13.3469463 5.37785362,10.735323 C5.38546336,10.7277113 5.39309146,10.720118 5.40073787,10.7125431 L13.4673115,2.72143747 L13.4673115,2.72143747 C15.2274317,0.977784268 18.0678013,0.991133451 19.8114545,2.7512537 C19.8205797,2.76046506 19.8296649,2.76971594 19.8387099,2.77900608 L19.8387099,2.77900608 L19.8387099,2.77900608 C21.5887922,4.57652514 21.569373,7.4467765 19.7951292,9.22045114 L11.6642625,17.3487092 L11.6642625,17.3487092 C10.8163456,18.196354 9.46403082,18.26344 8.53638318,17.5038779 L8.40267048,17.3943933 L8.40267048,17.3943933 C7.50791768,16.6617656 7.37648933,15.342513 8.10911705,14.4477602 C8.14767542,14.4006692 8.18826865,14.3552816 8.23078109,14.311727 L13.6981137,8.71035836" stroke-linecap="round" stroke-linejoin="round"/>
  </g>
</svg>
