<svg xmlns="http://www.w3.org/2000/svg" width="24" height="24" viewBox="0 0 24 24">
  <path fill="#828A99" d="M12 23.9c-.5 0-.9-.4-.9-.9v-2.6c-4-.3-7.4-3.2-8.3-7.2-.1-.5.2-1 .7-1.1.5-.1 1 .2 1.1.7.7 3.4 3.8 5.8 7.2 5.8h.5c3.4 0 6.5-2.4 7.2-5.8.1-.5.6-.8 1.1-.7.5.1.8.6.7 1.1-.9 4-4.3 6.9-8.3 7.2v2.6c-.1.5-.5.9-1 .9zM12 15.9c-2.7 0-4.9-2.2-4.9-4.9v-6c0-2.7 2.2-4.9 4.9-4.9s4.9 2.2 4.9 4.9v6c0 2.7-2.2 4.9-4.9 4.9zm0-14c-1.7 0-3.1 1.4-3.1 3.1v6c0 1.7 1.4 3.1 3.1 3.1 1.7 0 3.1-1.4 3.1-3.1v-6c0-1.7-1.4-3.1-3.1-3.1z"/>
</svg>
