<svg xmlns="http://www.w3.org/2000/svg" width="24" height="24" viewBox="0 0 24 24">
  <path fill="#929fad" d="M8.5,21 L15.5,21 C16.8807119,21 18,19.8807119 18,18.5 L18,7 L6,7 L6,18.5 C6,19.8807119 7.11928813,21 8.5,21 Z M8.76756439,4 C9.11337381,3.40219863 9.75971764,3 10.5,3 L13.5,3 C14.2402824,3 14.8866262,3.40219863 15.2324356,4 L18,4 C18.5522847,4 19,4.44771525 19,5 L19,5.75 C19,5.88807119 18.8880712,6 18.75,6 L5.25,6 C5.11192881,6 5,5.88807119 5,5.75 L5,5 C5,4.44771525 5.44771525,4 6,4 L8.76756439,4 Z"/>
</svg>
