<svg xmlns="http://www.w3.org/2000/svg" width="28" height="28" viewBox="0 0 28 28"><path fill="currentColor" d="M11 16.93v2.46c0 4.7-4.58 7.1-7.07 4.61-2.5-2.49-.08-7.07 4.6-7.07H11zm-2 2h-.46c-3.02 0-4.34 2.52-3.2 3.66C6.48 23.73 9 22.4 9 19.39v-.46zm10.39-15.4A3 3 0 0123 6.45v10.43c0 4.7-4.58 7.1-7.07 4.61-2.5-2.49-.08-7.07 4.6-7.07H21v-4.7L11 11.8V18H9V8.92c0-.95.08-1.43.31-1.96.23-.5.56-.9 1-1.23.47-.33.93-.51 1.85-.7zM21 16.42h-.46c-3.02 0-4.34 2.52-3.2 3.66 1.14 1.14 3.66-.18 3.66-3.2v-.46zm-.02-10.17a1 1 0 00-1.18-.78l-7.23 1.5c-.67.15-.88.23-1.08.37-.16.12-.27.25-.35.43-.1.23-.14.45-.14 1.14v.85l10-2.08V6.46a1 1 0 000-.1z"/></svg>
