<svg xmlns="http://www.w3.org/2000/svg" width="28" height="28" viewBox="0 0 28 28"><path fill="currentColor" fill-rule="nonzero" d="M16.6 4a2.9 2.9 0 012.41 1.09l.8 1c.18.22.7.42 1.19.42h.5c2.64 0 4.5 2.05 4.5 5.02v7.45c0 2.66-2.55 5.02-5.5 5.02h-13C4.55 24 2 21.64 2 18.98v-7.45c0-2.97 1.86-5.02 4.5-5.02H7c.5 0 1-.2 1.18-.42l.8-1A2.89 2.89 0 0111.4 4h5.22zm0 2h-5.2c-.46 0-.63.08-.88.38l-.78.97A3.6 3.6 0 017 8.5h-.5C5 8.51 4 9.63 4 11.53v7.45C4 20.5 5.62 22 7.5 22h13c1.88 0 3.5-1.5 3.5-3.02v-7.45c0-1.9-1-3.02-2.5-3.02H21a3.6 3.6 0 01-2.74-1.16l-.78-.97c-.25-.3-.42-.38-.87-.38zM9 14.75a5 5 0 1110 0 5 5 0 01-10 0zm2 0a3 3 0 106 0 3 3 0 00-6 0z"/></svg>
