<svg xmlns="http://www.w3.org/2000/svg" width="28" height="28" viewBox="0 0 28 28"><path fill="currentColor" d="M14 2c6.627 0 12 5.373 12 12s-5.373 12-12 12S2 20.627 2 14 7.373 2 14 2zm0 18.5c-2.086 0-4.08.582-5.797 1.649A9.952 9.952 0 0014 24c2.16 0 4.161-.685 5.796-1.85A10.94 10.94 0 0014 20.5zM14 4C8.477 4 4 8.477 4 14a9.964 9.964 0 002.648 6.779A12.934 12.934 0 0114 18.5c2.67 0 5.215.808 7.353 2.277A9.962 9.962 0 0024 14c0-5.523-4.477-10-10-10zm0 3.5a4.749 4.749 0 014.75 4.75A4.749 4.749 0 0114 17a4.749 4.749 0 01-4.75-4.75A4.749 4.749 0 0114 7.5zm0 2c-1.52 0-2.75 1.23-2.75 2.75S12.48 15 14 15s2.75-1.23 2.75-2.75S15.52 9.5 14 9.5z"/></svg>
