<svg xmlns="http://www.w3.org/2000/svg" width="28" height="28" viewBox="0 0 28 28"><path fill="currentColor" d="M15.15 2.04c.43.07.83.23 1.2.52.59.48.87 1.08 1.09 1.95.06.23.15.5.27.74.28.12.55.25.82.4.26-.07.51-.15.71-.25 1.42-.65 2.6-.62 3.57.43l.24.28.63.77c.17.21.24.3.35.49.69 1.15.42 2.22-.46 3.38-.14.2-.29.45-.41.71l.2.86c.21.18.45.34.66.44.8.41 1.33.82 1.66 1.51.2.42.26.85.24 1.28-.02.23-.04.36-.11.64l-.23.98c-.06.28-.1.4-.18.62-.16.4-.41.76-.78 1.05-.6.47-1.24.61-2.15.63-.23 0-.5.04-.77.1-.18.24-.36.47-.56.7 0 .27.03.54.07.76.2.89.2 1.55-.13 2.24-.2.42-.49.74-.84 1-.19.12-.3.19-.57.31l-.9.44c-.26.13-.38.18-.6.25-.4.13-.84.16-1.3.05-.74-.16-1.26-.58-1.84-1.27a4.1 4.1 0 00-.6-.56 9.63 9.63 0 01-.87 0 4.1 4.1 0 00-.59.56c-.58.7-1.1 1.1-1.84 1.27-.46.1-.9.08-1.3-.05a3.48 3.48 0 01-.6-.25l-.9-.44a7.15 7.15 0 01-.19-.09c-1.31-.68-1.7-1.85-1.35-3.46.04-.22.07-.49.07-.76-.2-.23-.38-.46-.56-.7-.27-.06-.54-.1-.77-.1-.9-.02-1.55-.16-2.15-.63a2.52 2.52 0 01-.78-1.05 3.48 3.48 0 01-.18-.62l-.23-.98c-.07-.3-.1-.43-.1-.68a2.5 2.5 0 01.29-1.34c.34-.63.84-1.02 1.6-1.4.2-.11.45-.27.67-.45.05-.29.12-.58.2-.86a4.11 4.11 0 00-.42-.7c-.88-1.17-1.15-2.24-.46-3.4.11-.17.18-.27.35-.48l.63-.77c.1-.14.16-.2.24-.28.97-1.05 2.15-1.08 3.57-.43.2.1.45.18.71.25.27-.15.54-.28.82-.4.12-.25.21-.51.27-.74.22-.87.5-1.47 1.1-1.95.36-.29.76-.45 1.2-.52.17-.03.3-.04.48-.04h1.16c.3 0 .42 0 .65.04zM14.59 4H13.5c-.5 0-.75 0-1 1a6.35 6.35 0 01-.84 1.87c-.64.21-1.24.5-1.8.87a6.35 6.35 0 01-1.95-.52c-.93-.44-1.09-.24-1.4.14l-.63.78c-.32.4-.48.58.14 1.4.35.47.73 1.16.94 1.86-.22.6-.37 1.24-.43 1.9-.5.53-1.13.98-1.64 1.24-.92.47-.86.72-.75 1.2l.22.98c.12.48.17.73 1.2.75.57 0 1.33.13 2 .39.35.57.77 1.1 1.25 1.56.1.72.05 1.47-.07 2.03-.21 1 .01 1.12.46 1.34l.9.43c.45.22.68.33 1.34-.46.37-.44.95-.95 1.59-1.32a7.57 7.57 0 001.94 0c.64.37 1.22.88 1.6 1.32.65.8.88.68 1.33.46l.9-.43c.45-.22.67-.33.46-1.34a6.35 6.35 0 01-.07-2.03c.48-.46.9-.99 1.24-1.56a6.35 6.35 0 012-.4c1.04-.01 1.1-.26 1.2-.74l.23-.98c.11-.48.17-.73-.75-1.2a6.35 6.35 0 01-1.64-1.24c-.06-.66-.21-1.3-.43-1.9.21-.7.59-1.39.94-1.85.62-.83.46-1.02.14-1.4l-.63-.79c-.31-.38-.47-.58-1.4-.14-.51.24-1.24.45-1.95.52a7.47 7.47 0 00-1.8-.87c-.4-.6-.7-1.31-.84-1.87-.24-.94-.47-1-.91-1zM14 9.5a4.5 4.5 0 110 9 4.5 4.5 0 010-9zm0 2a2.5 2.5 0 100 5 2.5 2.5 0 000-5z"/></svg>
