<svg xmlns="http://www.w3.org/2000/svg" width="24" height="24" viewBox="0 0 24 24">
  <path fill="#fff" d="M7.8,11 L12.7,6.1 C13.0865993,5.71340068 13.0865993,5.08659932 12.7,4.7 L12.7,4.7 C12.3134007,4.31340068 11.6865993,4.31340068 11.3,4.7 L4.70710678,11.2928932 C4.31658249,11.6834175 4.31658249,12.3165825 4.70710678,12.7071068 L11.3,19.3 C11.6865993,19.6865993 12.3134007,19.6865993 12.7,19.3 L12.7,19.3 C13.0865993,18.9134007 13.0865993,18.2865993 12.7,17.9 L7.8,13 L20,13 C20.5522847,13 21,12.5522847 21,12 L21,12 C21,11.4477153 20.5522847,11 20,11 L7.8,11 Z"/>
</svg>
