<svg xmlns="http://www.w3.org/2000/svg" width="20" height="20" viewBox="0 0 20 20"><path fill="url(#a)" d="M0 10a10 10 0 1 1 20 0 10 10 0 0 1-20 0Z"/><path fill="#fff" d="m11.8 7.57 2.4.23c.83.08 1.08.91.44 1.46l-1.87 1.59.7 2.6c.22.84-.49 1.36-1.2.85L10 12.65 7.73 14.3c-.7.5-1.42 0-1.2-.86l.7-2.59-1.87-1.6c-.64-.54-.39-1.37.45-1.45l2.39-.23 1.05-2.49c.33-.77 1.17-.77 1.5 0l1.05 2.49Z"/><defs><linearGradient id="a" x1="-10" x2="10" y1="10" y2="30" gradientUnits="userSpaceOnUse"><stop stop-color="#ffb73d"/><stop offset="1" stop-color="#ffa000"/></linearGradient></defs></svg>
