<svg xmlns="http://www.w3.org/2000/svg" width="56" height="56" viewBox="0 0 56 56"><path fill="currentColor" d="M28 4a24 24 0 1 1 0 48 24 24 0 0 1 0-48zm0 3a21 21 0 1 0 0 42 21 21 0 0 0 0-42zm-2.77 8.75a3 3 0 0 1 5.54 0l2.17 5.23c.04.08.12.14.21.15l5.64.45a3 3 0 0 1 1.71 5.27l-4.3 3.68a.25.25 0 0 0-.07.25l1.3 5.5a3 3 0 0 1-4.47 3.26l-4.83-2.95a.25.25 0 0 0-.26 0l-4.83 2.95a3 3 0 0 1-4.48-3.26l1.31-5.5c.03-.1 0-.19-.08-.25l-4.3-3.68a3 3 0 0 1 1.72-5.27l5.64-.45c.1 0 .17-.07.2-.15zM28 16.91l-2.17 5.22a3.25 3.25 0 0 1-2.74 1.99l-5.64.45 4.3 3.68c.92.8 1.32 2.04 1.04 3.22l-1.31 5.5 4.83-2.94a3.25 3.25 0 0 1 3.38 0l4.83 2.95-1.31-5.5a3.25 3.25 0 0 1 1.05-3.23l4.3-3.68-5.65-.45a3.25 3.25 0 0 1-2.74-2z"/></svg>
