<svg xmlns="http://www.w3.org/2000/svg" width="24" height="24" viewBox="2 2 26 26"><path fill="currentColor" d="M17.643 25H15a1 1 0 1 1 0-2h2.6c1.137 0 1.929 0 2.546-.051.605-.05.953-.142 1.216-.276a3 3 0 0 0 1.311-1.311c.134-.263.226-.611.276-1.216.05-.617.051-1.41.051-2.546v-7.2c0-1.137 0-1.929-.051-2.546-.05-.605-.142-.953-.276-1.216a3 3 0 0 0-1.311-1.311c-.263-.134-.611-.226-1.216-.276C19.529 5.001 18.736 5 17.6 5H15a1 1 0 1 1 0-2h2.643c1.084 0 1.958 0 2.666.058.729.06 1.369.185 1.961.487a5 5 0 0 1 2.185 2.185c.302.592.428 1.233.487 1.961C25 8.4 25 9.273 25 10.357v7.286c0 1.084 0 1.958-.058 2.666-.06.728-.185 1.369-.487 1.961a5 5 0 0 1-2.185 2.185c-.592.302-1.232.428-1.961.487C19.6 25 18.727 25 17.643 25zM3 14a1 1 0 0 1 1-1h9.586l-2.293-2.293a1 1 0 0 1 1.414-1.414l4 4a.996.996 0 0 1 .294.705v.005c-.002.272-.11.518-.287.698l-.008.007-3.999 4a1 1 0 0 1-1.414-1.415L13.586 15H4a1 1 0 0 1-1-1z"/></svg>
