<svg xmlns="http://www.w3.org/2000/svg" width="24" height="24" viewBox="2 2 26 26"><path fill="currentColor" d="M10.357 3H13a1 1 0 1 1 0 2h-2.6c-1.137 0-1.929 0-2.546.051-.605.05-.953.142-1.216.276a3 3 0 0 0-1.311 1.311c-.134.263-.226.611-.276 1.216C5.001 8.471 5 9.264 5 10.4v7.2c0 1.137 0 1.929.051 2.546.05.605.142.953.276 1.216a3 3 0 0 0 1.311 1.311c.263.134.611.226 1.216.276.617.05 1.41.051 2.546.051H13a1 1 0 1 1 0 2h-2.643c-1.084 0-1.958 0-2.666-.058-.728-.06-1.369-.185-1.96-.487a5 5 0 0 1-2.186-2.185c-.302-.592-.428-1.232-.487-1.961C3 19.6 3 18.727 3 17.643v-7.286c0-1.084 0-1.958.058-2.666.06-.728.185-1.369.487-1.96A5 5 0 0 1 5.73 3.544c.592-.302 1.233-.428 1.961-.487C8.4 3 9.273 3 10.357 3zm8.936 6.293a1 1 0 0 1 1.414 0l4 4a1 1 0 0 1 0 1.414l-4 4a1 1 0 0 1-1.414-1.414L21.586 15H12a1 1 0 1 1 0-2h9.586l-2.293-2.293a1 1 0 0 1 0-1.414z"/></svg>
