<svg xmlns="http://www.w3.org/2000/svg" width="16" height="16" viewBox="0 0 16 16"><path fill="currentColor" d="M8 2c1.647 0 2.948.567 4.149 1.666C13.332 4.748 14 6.224 14 7.767l-.01 5.04c-.067.901-.687 1.568-1.588 1.568-.9 0-1.14-.625-1.91-.498C9.722 14.005 9.432 15 8 15s-1.75-1-2.492-1.123c-.77-.127-1.01.498-1.91.498-.868 0-1.543-.627-1.588-1.567L2 7.768c0-1.544.668-3.02 1.851-4.102C5.002 2.613 6.353 2 8 2zm2.317 8.22a.753.753 0 00-1.01-.05c-.738.617-1.474.617-2.224.241a2.217 2.217 0 01-.39-.24l-.071-.053a.754.754 0 00-.939.102.63.63 0 00.053.936c.139.116.365.27.668.423 1.234.618 2.614.618 3.86-.423a.63.63 0 00.053-.936zM5.5 6.5a1 1 0 100 2 1 1 0 000-2zm5 0a1 1 0 100 2 1 1 0 000-2z"/></svg>
