<svg xmlns="http://www.w3.org/2000/svg" width="56" height="56" viewBox="0 0 56 56"><path fill="currentColor" d="M33.57 34.52c.6.65.57 1.67-.1 2.27-3 2.73-6.35 2.73-9.33 1.1-.74-.4-1.28-.8-1.61-1.1a1.59 1.59 0 01-.1-2.27 1.66 1.66 0 012.19-.2l.13.1c.15.14.5.4.97.66 1.86 1.01 3.7 1.01 5.53-.65.67-.6 1.7-.57 2.32.09zM19.5 22a3.5 3.5 0 110 7 3.5 3.5 0 010-7zM28 4c5.83 0 10.75 2.06 15.26 6.27A20.86 20.86 0 0150 25.05l-.02 20.82c-.07 2.55-1.9 4.56-4.5 4.56-.59-.02-1.3-.12-2.24-.5l-1.92-.81a7.88 7.88 0 00-3.08-.81h-.15c-.42.04-.83.24-1.97 1.03l-1.75 1.25C32.16 52.16 30.03 52.93 28 53c-2.04 0-3.83-.69-6-2.18l-1.94-1.37-.55-.38a3.94 3.94 0 00-1.48-.74l-.25-.02a7.9 7.9 0 00-3.08.8l-1.93.82c-.8.32-1.22.44-1.7.48l-.55.02c-2.5 0-4.32-1.96-4.5-4.43L6 25.5c0-5.72 2.43-11.2 6.76-15.22C17.16 6.16 22.38 4.1 28 4zm.02 3l-.43.02c-4.78.2-9.12 2.02-12.79 5.44A17.85 17.85 0 009 25.06v.43l.02 20.37.01.1c.12.86.65 1.4 1.35 1.47h.11l.37-.01h.04c.09-.02.21-.06.44-.15l.27-.1 1.93-.82c1.6-.67 2.76-1 3.98-1.03h.46l.26.02a3 3 0 01.25.02c.98.15 1.67.51 3.04 1.46l.27.18 1.9 1.35c1.65 1.14 2.83 1.6 4.08 1.65h.16l.23-.01a8.86 8.86 0 004.14-1.62l.32-.22 1.78-1.27c1.7-1.18 2.52-1.57 3.83-1.57a10 10 0 013.9.9l.35.15 1.87.79c.51.2.85.27 1.13.29.82 0 1.39-.55 1.48-1.4v-.17L47 25.12a17.86 17.86 0 00-5.8-12.66C37.35 8.85 33.28 7.1 28.45 7h-.42zm11.46 17.85c.6.52.7 1.46.2 2.1a1.36 1.36 0 01-1.87.3l-.12-.09-.15-.13c-.9-.7-1.8-.66-2.74-.18a3.83 3.83 0 00-.28.16l-.13.09-.2.15a1.36 1.36 0 01-1.87-.3c-.5-.64-.4-1.58.2-2.1a5.49 5.49 0 011.04-.68 5 5 0 015.92.68z"/></svg>
