<svg xmlns="http://www.w3.org/2000/svg" width="24" height="24" viewBox="0 0 24 24"><path fill="#929fad" d="M8.19 5.77l1.7 1.7 2.03 2.03 2.58 2.58 2.03 2.04 2.29 2.28 1.38 1.39a1 1 0 0 1-1.41 1.41l-1.64-1.64A10.2 10.2 0 0 1 12 19c-6 0-10-5.6-10-7 0-.89 1.62-3.48 4.34-5.25L4.8 5.21A1 1 0 0 1 6.2 3.8l2 1.97zm7.13 9.97l-1.77-1.78a2.5 2.5 0 0 1-3.51-3.51L8.26 8.68a5 5 0 0 0 7.06 7.06zm-4.94-10.6A9.63 9.63 0 0 1 12 5c6 0 10 5.6 10 7 0 .55-.62 1.76-1.74 3.01l-3.27-3.26A5 5 0 0 0 12.25 7l-1.87-1.87z"/></svg>
