<svg xmlns="http://www.w3.org/2000/svg" width="28" height="28" viewBox="0 0 28 28"><path fill="currentColor" fill-rule="nonzero" d="M14 2a12 12 0 110 24 12 12 0 010-24zm0 2a10 10 0 100 20 10 10 0 000-20zm.07 8c.24 0 .39.04.52.1.13.08.23.18.3.3.07.14.11.29.11.53v6.14c0 .24-.04.39-.1.52a.73.73 0 01-.3.3c-.14.07-.29.11-.53.11h-.14c-.24 0-.39-.04-.52-.1a.73.73 0 01-.3-.3c-.07-.14-.11-.29-.11-.53v-6.14c0-.24.04-.39.1-.52a.73.73 0 01.3-.3c.14-.07.29-.11.53-.11h.14zM14 7.6a1.4 1.4 0 110 2.8 1.4 1.4 0 010-2.8z"/></svg>
