<svg xmlns="http://www.w3.org/2000/svg" width="24" height="34" viewBox="0 0 24 34"><path fill="currentColor" d="M12 29.87c-2.01 0-3.77-.4-5.28-1.23a8.53 8.53 0 01-3.49-3.47A10.78 10.78 0 012 19.92v-.73c0-2 .43-3.76 1.28-5.3a9.04 9.04 0 013.61-3.6A10.8 10.8 0 0112.2 9h.1c1.87 0 3.54.38 5 1.15a8.64 8.64 0 013.46 3.19A8.67 8.67 0 0122 17.95v.66c0 1.18-.2 2.22-.58 3.12-.39.9-.93 1.61-1.62 2.12-.7.5-1.5.75-2.4.75-.81 0-1.51-.17-2.1-.51a2.02 2.02 0 01-1.06-1.34h-.13c-.1.34-.29.65-.58.94-.29.28-.64.5-1.06.67-.41.16-.85.24-1.3.24-.73 0-1.35-.17-1.89-.52a3.4 3.4 0 01-1.24-1.5 5.62 5.62 0 01-.43-2.3v-1.33c0-.86.15-1.6.44-2.25a3.32 3.32 0 013.2-1.99c.64 0 1.21.16 1.7.48.5.33.82.74.98 1.26h.1v-.34c0-.35.1-.63.3-.84.19-.2.45-.3.78-.3s.59.1.78.3c.2.21.29.49.29.84v5.27c0 .44.14.8.4 1.07.28.27.64.4 1.08.4.46 0 .87-.18 1.22-.54.35-.36.62-.87.8-1.53.2-.67.3-1.44.3-2.33v-.43a6.83 6.83 0 00-3.7-6.25 8.34 8.34 0 00-3.97-.93h-.1a8.4 8.4 0 00-4.25 1.06 7.3 7.3 0 00-2.86 2.97 9.23 9.23 0 00-1.02 4.4v.57c0 1.65.33 3.1.99 4.33a6.92 6.92 0 002.8 2.87c1.2.68 2.6 1.01 4.22 1.01h.1c.6 0 1.34-.06 2.23-.2.46-.06.76-.09.9-.09a.9.9 0 01.64.23c.16.16.25.35.25.59a.9.9 0 01-.21.6c-.14.17-.35.29-.61.36-.85.22-1.94.33-3.26.33H12zm-2.1-9.9c0 .88.17 1.56.5 2.02.34.46.84.69 1.5.69.65 0 1.15-.22 1.49-.66a3.1 3.1 0 00.51-1.93v-1.07c0-.77-.18-1.38-.54-1.83a1.8 1.8 0 00-1.49-.67c-.62 0-1.1.23-1.45.7a3.26 3.26 0 00-.52 1.97v.78z"/></svg>
