<svg xmlns="http://www.w3.org/2000/svg" width="24" height="24" viewBox="0 0 24 24"><path fill="currentColor" d="M7.71 18.2a.9.9 0 0 1 1-.26c1.03.39 2.14.59 3.29.59 4.5 0 8.1-3.09 8.1-6.82S16.5 4.9 12 4.9s-8.1 3.08-8.1 6.81a6 6 0 0 0 1.21 3.59.9.9 0 0 1 .18.54c0 .9-.38 2.18-1.11 3.91 1.65-.18 2.82-.7 3.53-1.55zM3.4 21.62c-.92.03-1.6-.95-1.21-1.8.78-1.71 1.2-2.97 1.3-3.72a7.76 7.76 0 0 1-1.39-4.4c0-4.78 4.46-8.6 9.9-8.6s9.9 3.82 9.9 8.61c0 4.8-4.46 8.62-9.9 8.62-1.16 0-2.29-.17-3.35-.5-1.21 1.1-2.98 1.7-5.26 1.79z"/></svg>
