<svg xmlns="http://www.w3.org/2000/svg" width="24" height="24" viewBox="0 0 24 24"><path fill-rule="evenodd" clip-rule="evenodd" fill="currentColor" d="M5 5a9.87 9.87 0 017-2.9A9.87 9.87 0 0119 5a9.87 9.87 0 012.9 7c0 1.93-.61 3.28-1.77 4.04-1.09.72-2.46.76-3.65.63a2280.09 2280.09 0 00-1.31-.14h-.03c-.65-.04-.94.14-1.06.28-.12.14-.24.46-.08 1.1l.18.58.1.34A2.38 2.38 0 0112 21.9 9.87 9.87 0 015 19a9.87 9.87 0 01-2.9-7A9.87 9.87 0 015 5zm7-1.1c-2.24 0-4.26.9-5.73 2.37A8.07 8.07 0 003.9 12c0 2.24.9 4.26 2.37 5.73A8.07 8.07 0 0012 20.1a.58.58 0 00.56-.75 25.02 25.02 0 00-.08-.27 16 16 0 01-.22-.72c-.25-.97-.18-1.96.43-2.7.61-.74 1.57-1 2.58-.93l1.2.13.2.02c1.07.12 1.92.02 2.47-.34.49-.32.96-.98.96-2.54 0-2.24-.9-4.26-2.37-5.73A8.07 8.07 0 0012 3.9z"/><path fill="currentColor" d="M13 7.4a1.4 1.4 0 112.8 0 1.4 1.4 0 01-2.8 0zm2.75 4a1.4 1.4 0 112.8 0 1.4 1.4 0 01-2.8 0zm-10.3 0a1.4 1.4 0 112.8 0 1.4 1.4 0 01-2.8 0zM8 7.4a1.4 1.4 0 112.8 0 1.4 1.4 0 01-2.8 0z"/></svg>
