<svg xmlns="http://www.w3.org/2000/svg" width="28" height="28" viewBox="0 0 28 28"><path fill="currentColor" fill-rule="nonzero" d="M14 2.33c6.43 0 11.67 4.72 11.67 10.5a7 7 0 01-7 7H16.6a.58.58 0 00-.58.59c0 .14.06.26.15.38A2.92 2.92 0 0114 25.67 11.69 11.69 0 012.33 14C2.33 7.57 7.57 2.33 14 2.33zm0 2a9.68 9.68 0 00-9.67 9.66 9.68 9.68 0 009.66 9.67.6.6 0 00.6-.6c0-.2-.09-.34-.16-.43a3.02 3.02 0 012.26-5.01h2.14a4.83 4.83 0 004.83-4.83c0-4.67-4.34-8.46-9.67-8.46zm-6.42 7.34a1.75 1.75 0 110 3.5 1.75 1.75 0 010-3.5zm12.84 0a1.75 1.75 0 110 3.5 1.75 1.75 0 010-3.5zM11.08 7a1.75 1.75 0 110 3.5 1.75 1.75 0 010-3.5zm5.84 0a1.75 1.75 0 110 3.5 1.75 1.75 0 010-3.5z"/></svg>
