<svg xmlns="http://www.w3.org/2000/svg" width="24" height="24" viewBox="0 0 24 24"><path fill="currentColor" d="M13.158 3.724a.9.9 0 0 1 1.52-.46l6.058 6.06a.9.9 0 0 1-.46 1.518l-1.8.36a.325.325 0 0 0-.166.09l-2.88 2.88a.324.324 0 0 0-.094.204l-.347 4.511a1.206 1.206 0 0 1-2.055.76L9.28 15.994l-4.744 4.744a.9.9 0 0 1-1.353-1.18l.08-.093 4.744-4.744-3.654-3.653a1.206 1.206 0 0 1-.088-1.608l.088-.098c.204-.203.473-.327.76-.35l4.512-.346a.324.324 0 0 0 .204-.094l2.88-2.88a.324.324 0 0 0 .09-.166l.36-1.8Zm1.435 2.002-.03.152a2.125 2.125 0 0 1-.58 1.085l-2.88 2.88a2.125 2.125 0 0 1-1.34.616l-3.224.248 6.754 6.754.248-3.223c.034-.443.206-.862.489-1.2l.127-.14 2.88-2.88a2.124 2.124 0 0 1 1.086-.58l.151-.031-3.681-3.681Z"/></svg>
