<svg xmlns="http://www.w3.org/2000/svg" width="24" height="24" viewBox="0 0 24 24"><path fill="currentColor" fill-rule="nonzero" d="M12.23 3.73c1.11.07 2 1 2 2.14v2.12h.02a9.9 9.9 0 0 1 7.82 10.72.9.9 0 0 1-1.6.46l-.2-.24a9.08 9.08 0 0 0-5.83-3.26l-.22-.03v2.5a2.15 2.15 0 0 1-3.47 1.69l-7.83-6.14a2.15 2.15 0 0 1 0-3.38l7.83-6.13c.38-.3.84-.46 1.32-.46zm-.16 1.79a.35.35 0 0 0-.21.07l-7.83 6.14a.35.35 0 0 0 0 .55l7.83 6.13a.35.35 0 0 0 .56-.28V14.7c0-.5.42-.91.92-.9h.23l.34.02c2.28.14 4.4.98 6.12 2.36l.18.15-.03-.14a8.1 8.1 0 0 0-6.96-6.53.9.9 0 0 1-.8-.9V5.87c0-.2-.15-.35-.35-.35z"/></svg>
