<svg xmlns="http://www.w3.org/2000/svg" width="24" height="24" viewBox="0 0 24 24">
  <path fill="#929fad" d="M12,19 C6,19 2,13.4 2,12 C2,10.6 6,5 12,5 C18,5 22,10.6 22,12 C22,13.4 18,19 12,19 Z M12,17 C14.7614237,17 17,14.7614237 17,12 C17,9.23857625 14.7614237,7 12,7 C9.23857625,7 7,9.23857625 7,12 C7,14.7614237 9.23857625,17 12,17 Z M12.0009513,14.5 C10.6202394,14.5 9.50095131,13.3807119 9.50095131,12 C9.50095131,10.6192881 10.6202394,9.5 12.0009513,9.5 C13.3816632,9.5 14.5009513,10.6192881 14.5009513,12 C14.5009513,13.3807119 13.3816632,14.5 12.0009513,14.5 Z"/>
</svg>
