<svg xmlns="http://www.w3.org/2000/svg" viewBox="0 0 16 16" width="16" height="16"><path fill="#74a2d6" d="M5.82 14.82l-1.28.2a.82.82 0 0 1-.9-.51l-.46-1.21a.82.82 0 0 0-.48-.48l-1.2-.46a.82.82 0 0 1-.53-.9l.2-1.28A.82.82 0 0 0 1 9.53L.18 8.52a.82.82 0 0 1 0-1.04l.82-1a.82.82 0 0 0 .18-.66l-.2-1.28a.82.82 0 0 1 .51-.9l1.21-.46c.22-.08.4-.26.48-.48l.46-1.2a.82.82 0 0 1 .9-.53l1.28.2A.8.8 0 0 0 6.47 1L7.48.18a.82.82 0 0 1 1.04 0l1 .82c.19.15.42.21.66.18l1.28-.2c.38-.07.76.15.9.51l.46 1.21c.08.22.26.4.48.48l1.2.46c.37.14.59.52.53.9l-.2 1.28a.8.8 0 0 0 .17.65l.82 1.01c.24.3.24.74 0 1.04l-.82 1a.82.82 0 0 0-.18.66l.2 1.28a.82.82 0 0 1-.51.9l-1.21.46a.82.82 0 0 0-.48.48l-.46 1.2a.82.82 0 0 1-.9.53l-1.28-.2a.82.82 0 0 0-.65.17l-1.01.82a.82.82 0 0 1-1.04 0l-1-.82a.82.82 0 0 0-.66-.18z"/><path fill="none" stroke="#fff" stroke-width="1.7" d="M4.75 8.25L7 10.5 11.49 6"/></svg>
