<svg xmlns="http://www.w3.org/2000/svg" viewBox="0 0 52 24"><path fill="#fff" fill-rule="evenodd" d="M28.03 7.94c.49 0 .96.1 1.4.3.45.2.84.48 1.17.85a4.14 4.14 0 011.11 2.9 4.28 4.28 0 01-1.1 2.9 3.63 3.63 0 01-2.58 1.15c-.33 0-.62-.04-.87-.12a2.8 2.8 0 01-1.2-.65l.01 3.44H24V8.03h1.46l.34.77c.17-.16.37-.3.6-.43.2-.1.43-.2.7-.3.28-.08.58-.13.93-.13zm-2.23 4.05c0 .65.19 1.18.56 1.57.38.39.85.58 1.4.58.57 0 1.04-.2 1.41-.58.38-.4.57-.92.57-1.57 0-.66-.19-1.18-.57-1.57-.37-.39-.84-.58-1.4-.58-.56 0-1.03.19-1.4.58-.38.4-.57.91-.57 1.57zm10.54-4.05c.44 0 .86.08 1.23.23A2.93 2.93 0 0139.2 9.8c.16.38.23.8.23 1.24v4.91h-1.45l-.35-.77a3.8 3.8 0 01-1.3.73c-.27.08-.58.13-.92.13-.86 0-1.52-.21-1.97-.63a2.09 2.09 0 01-.69-1.61c0-.4.08-.75.23-1.08.16-.33.42-.6.78-.84.37-.24.85-.42 1.45-.55.6-.14 1.35-.2 2.25-.2 0-.44-.11-.78-.35-1.02a1.24 1.24 0 00-.93-.36 1.22 1.22 0 00-1 .43 1 1 0 00-.2.43H33c.04-.37.15-.71.32-1.03.16-.32.39-.6.67-.85.29-.24.63-.43 1.02-.57.4-.15.84-.22 1.33-.22zm-.6 6.55c.51 0 .93-.16 1.24-.46.32-.3.47-.7.47-1.18v-.34c-.58 0-1.05.02-1.4.07a2.9 2.9 0 00-.83.23c-.2.1-.34.21-.4.35-.07.14-.1.3-.1.47 0 .21.09.41.28.59.2.18.44.27.74.27zm4.38-6.46h2.05l1.97 5.16 1.8-5.16H48a1504.53 1504.53 0 01-2.6 6.72 86.84 86.84 0 01-.57 1.46c-.2.47-.39.87-.57 1.2-.2.32-.4.6-.61.8-.22.2-.45.35-.7.45a2.48 2.48 0 01-1.13.13 1.69 1.69 0 01-.42-.08v-1.64c.44 0 .77-.1 1-.3.24-.19.42-.43.55-.73l.17-.43-3-7.58zM9.55 4h4.9C18.93 4 20 5.07 20 9.55v4.9c0 4.48-1.07 5.55-5.55 5.55h-4.9C5.07 20 4 18.93 4 14.45v-4.9C4 5.07 5.07 4 9.55 4zm7.64 5.43c.07-.25 0-.43-.36-.43h-1.16a.5.5 0 00-.51.33s-.6 1.45-1.43 2.39c-.28.27-.4.35-.55.35-.07 0-.18-.08-.18-.33V9.43c0-.3-.09-.43-.33-.43h-1.84c-.18 0-.3.14-.3.27 0 .28.43.34.47 1.14v1.71c0 .38-.07.45-.22.45-.4 0-1.35-1.45-1.92-3.12-.12-.32-.23-.45-.53-.45H7.17c-.34 0-.4.16-.4.33 0 .3.4 1.84 1.84 3.87.96 1.38 2.32 2.13 3.56 2.13.74 0 .83-.16.83-.45v-1.05c0-.33.07-.4.3-.4.18 0 .47.09 1.17.76.79.79.92 1.14 1.36 1.14H17c.33 0 .5-.16.4-.5a5 5 0 00-.98-1.36c-.27-.32-.68-.67-.8-.84-.18-.22-.13-.32 0-.52 0 0 1.42-2 1.57-2.68z"/></svg>
