<svg xmlns="http://www.w3.org/2000/svg" width="24" height="24" viewBox="0 0 24 24"><path fill="currentColor" d="M14.25 4c.9 0 1.75.7 1.75 1.69V18.3c0 1-.85 1.69-1.75 1.69-.76 0-1.5-.28-2.06-.8l-4.24-3.93H6.14A2.1 2.1 0 0 1 4 13.22v-2.44a2.1 2.1 0 0 1 2.14-2.05h1.8L12.2 4.8a3.04 3.04 0 0 1 2.06-.8zm-.05 1.8a1.23 1.23 0 0 0-.79.32l-4.5 4.17a.9.9 0 0 1-.61.24H6.14c-.14 0-.34.09-.34.25v2.44c0 .16.2.25.34.25H8.3a.9.9 0 0 1 .61.24l4.5 4.17c.2.19.48.3.79.32V5.8zm7.34.47C23.06 7.79 24 9.79 24 12s-.94 4.2-2.46 5.74a.9.9 0 1 1-1.28-1.27A6.31 6.31 0 0 0 22.2 12a6.3 6.3 0 0 0-1.94-4.46.9.9 0 1 1 1.28-1.27zm-2.55 3.05C19.6 10.06 20 10.98 20 12s-.39 1.94-1.01 2.68a.9.9 0 0 1-1.38-1.16c.39-.45.59-.98.59-1.52s-.2-1.07-.59-1.52A.9.9 0 0 1 19 9.32z"/></svg>
