<svg xmlns="http://www.w3.org/2000/svg" viewBox="0 0 24 24" width="24" height="24" color="#648fc1"><g fill="none" fill-rule="evenodd"><path d="M0 0h24v24H0z"/><path fill="currentColor" fill-rule="nonzero" d="M21.66 17.66a.9.9 0 1 1-1.28-1.28 6.2 6.2 0 0 0 0-8.76.9.9 0 1 1 1.28-1.28 8 8 0 0 1 0 11.32zM19.1 15.1a.9.9 0 0 1-1.27-1.27 2.6 2.6 0 0 0 0-3.68.9.9 0 1 1 1.27-1.27 4.4 4.4 0 0 1 0 6.22zM5 15a2 2 0 0 1-2-2v-2c0-1.1.9-2 2-2h2.76l5.52-5.3c.46-.45 1.08-.7 1.72-.7a1 1 0 0 1 1 1v16a1 1 0 0 1-1 1c-.64 0-1.26-.25-1.72-.7L7.8 15H5z"/></g></svg>
