<svg xmlns="http://www.w3.org/2000/svg" width="24" height="24" viewBox="0 0 24 24"><path fill="currentColor" d="M6.264 4.264a.9.9 0 011.272 0l12.2 12.2a.9.9 0 11-1.272 1.272L16 15.273v3.038c0 .995-.848 1.689-1.75 1.689-.762 0-1.505-.28-2.063-.798l-4.24-3.935H6.14c-1.118 0-2.14-.856-2.14-2.05v-2.433c0-1.195 1.022-2.05 2.14-2.05h1.807l.785-.73-2.468-2.468a.9.9 0 010-1.272zm3.751 5.024c-.368.335-.74.668-1.103 1.005a.9.9 0 01-.612.24H6.14a.386.386 0 00-.265.097.208.208 0 00-.075.154v2.432c0 .047.019.101.075.154.058.054.15.097.265.097H8.3a.9.9 0 01.612.24l4.5 4.175c.2.187.481.305.788.317v-4.726l-4.185-4.185zM14.25 4c.902 0 1.75.694 1.75 1.689V8.01a.9.9 0 11-1.8 0V5.8a1.23 1.23 0 00-.789.316l-.13.122a.9.9 0 11-1.225-1.32l.13-.12A3.035 3.035 0 0114.25 4z"/></svg>
