<svg xmlns="http://www.w3.org/2000/svg" width="24" height="24" viewBox="0 0 24 24"><path fill="currentColor" d="M19 10a1 1 0 011.993-.117L21 10v5.303c0 1.98-.206 2.699-.594 3.423a4.039 4.039 0 01-1.68 1.68c-.724.388-1.442.594-3.423.594H8.697c-1.982 0-2.7-.206-3.424-.594a4.039 4.039 0 01-1.68-1.68C3.206 18.002 3 17.284 3 15.303V8.697c0-1.982.206-2.7.594-3.424a4.038 4.038 0 011.68-1.68C5.998 3.206 6.716 3 8.698 3H14v2H8.575c-1.513 0-1.974.089-2.444.34a1.87 1.87 0 00-.79.79c-.238.445-.33.88-.34 2.202L5 15.425c0 1.513.089 1.974.34 2.444.186.347.444.605.79.79.471.252.932.341 2.445.341h6.85c1.513 0 1.974-.089 2.444-.34.347-.186.605-.444.79-.79.252-.471.341-.932.341-2.445V10zm.388-7.158l1.717 1.819-7.612 7.612c-1.061 1.06-3.006 1.944-3.36 1.591-.353-.354.531-2.298 1.592-3.359l.143-.143 7.52-7.52zM14 3a1 1 0 01.117 1.993L14 5V3zm8.862-1.864c.53.53.53 1.237 0 1.768l-.282.282-.416.416-1.768-1.768.698-.698c.53-.53 1.237-.53 1.768 0z"/></svg>
